#!OML:ASF X:\für Bonn\!DataBase\2005_08_12_Daniel\c3d\Daniel.ASF
:FULLY-SPECIFIED
:DEGREES
17
root -3.48007 17.1087 -0.725329 -20.15 -71.1302 4.41863
lowerback 22.3632 -10.0216 -7.95821
upperback 9.9325 -15.415 -2.80807
thorax 0.0262203 -8.22437 4.44334
lowerneck 7.97981 9.23169 -4.37067
upperneck 17.4448 11.2611 -0.350243
head 4.17636 4.86035 0.689569
rclavicle -8.66701e-014 4.13472e-014
rhumerus -49.547 15.0282 -80.1273
rradius 40.5967
rwrist 18.8935
rhand -28.4404 34.5882
rfingers 7.12502
rthumb -1.81123 4.6161
lclavicle -8.66701e-014 4.13472e-014
lhumerus 11.7923 4.16312 82.7036
lradius 103.64
lwrist 36.9499
lhand -16.2344 -10.4325
lfingers 7.12502
lthumb 9.97405 19.3112
rfemur -26.7894 -6.65164 6.69331
rtibia 75.5932
rfoot 0.469713 -9.7606
rtoes -11.9153
lfemur -1.22346 -16.6509 -25.8931
ltibia 35.0342
lfoot -20.6196 6.30412
ltoes -0.688715
18
root -3.44635 17.127 -0.693781 -19.3522 -71.114 3.0671
lowerback 23.2085 -10.4471 -7.98957
upperback 10.2474 -16.064 -2.75822
thorax 0.0744118 -8.58412 4.73168
lowerneck 8.10735 9.46906 -4.56217
upperneck 16.9916 11.5608 -0.399467
head 3.97372 5.0127 0.682699
rclavicle 6.52014e-014 -5.96354e-014
rhumerus -49.6409 14.5364 -79.6114
rradius 39.8709
rwrist 19.5522
rhand -28.5317 34.7219
rfingers 7.12502
rthumb -1.89947 4.75058
lclavicle 6.52014e-014 -5.96354e-014
lhumerus 13.6773 4.17025 82.4227
lradius 105.045
lwrist 38.0381
lhand -16.4077 -10.2387
lfingers 7.12502
lthumb 9.80684 19.5129
rfemur -28.9851 -7.02629 7.03497
rtibia 78.301
rfoot 0.807299 -8.24748
rtoes -13.13
lfemur -0.4878 -16.9585 -25.8105
ltibia 34.5992
lfoot -20.4334 6.55956
ltoes -0.47551
19
root -3.41178 17.1446 -0.665397 -18.3898 -71.0996 1.56593
lowerback 24.051 -10.86 -7.97357
upperback 10.5744 -16.686 -2.71123
thorax 0.129976 -8.93148 4.99434
lowerneck 8.26885 9.6809 -4.7332
upperneck 16.4999 11.8215 -0.422545
head 3.75269 5.15108 0.67672
rclavicle 3.95581e-014 -9.38264e-014
rhumerus -49.7272 13.976 -79.1015
rradius 39.1481
rwrist 20.2608
rhand -28.7879 34.8511
rfingers 7.12502
rthumb -2.14688 4.88212
lclavicle 3.95581e-014 -9.38264e-014
lhumerus 15.5991 4.19479 82.1833
lradius 106.325
lwrist 39.0574
lhand -16.4552 -10.1706
lfingers 7.12502
lthumb 9.76103 19.5832
rfemur -31.2456 -7.36971 7.50329
rtibia 80.9456
rfoot 0.945442 -6.89724
rtoes -14.3045
lfemur 0.199171 -17.25 -25.6501
ltibia 34.1856
lfoot -20.2491 6.81589
ltoes -0.410755
20
root -3.37718 17.1605 -0.640067 -17.3093 -71.0483 -0.0936492
lowerback 24.9699 -11.2824 -7.92586
upperback 10.9037 -17.3194 -2.68528
thorax 0.147346 -9.2827 5.24662
lowerneck 8.41988 9.89326 -4.84626
upperneck 16.0275 12.0831 -0.416752
head 3.54401 5.29417 0.67092
rclavicle -2.08724e-014 3.02153e-014
rhumerus -49.8473 13.3544 -78.6161
rradius 38.4444
rwrist 21.0407
rhand -29.1385 34.998
rfingers 7.12502
rthumb -2.48542 5.03276
lclavicle -2.08724e-014 3.02153e-014
lhumerus 17.4943 4.2576 81.9845
lradius 107.595
lwrist 40.0144
lhand -16.3321 -10.1767
lfingers 7.12502
lthumb 9.87974 19.5715
rfemur -33.4523 -7.75565 8.06972
rtibia 83.5122
rfoot 1.02241 -5.75417
rtoes -14.973
lfemur 0.896961 -17.5303 -25.4348
ltibia 33.7998
lfoot -20.033 7.04135
ltoes -0.202111
21
root -3.34507 17.1776 -0.618317 -16.093 -70.9497 -1.92154
lowerback 25.9534 -11.7277 -7.87813
upperback 11.2203 -17.9852 -2.66001
thorax 0.135255 -9.64951 5.52803
lowerneck 8.67939 10.107 -4.858
upperneck 15.5279 12.3458 -0.4757
head 3.32027 5.44168 0.621468
rclavicle -6.14245e-014 3.73715e-014
rhumerus -50.0104 12.8408 -78.1605
rradius 37.7534
rwrist 21.7567
rhand -29.4931 35.2506
rfingers 7.12502
rthumb -2.82797 5.28956
lclavicle -6.14245e-014 3.73715e-014
lhumerus 19.3313 4.41285 81.8557
lradius 108.84
lwrist 40.9285
lhand -15.9823 -10.3078
lfingers 7.12502
lthumb 10.2173 19.4241
rfemur -35.6015 -8.13822 8.74694
rtibia 86.0095
rfoot 1.03531 -4.77394
rtoes -15.1039
lfemur 1.61192 -17.8146 -25.143
ltibia 33.4299
lfoot -19.8382 7.1784
ltoes -0.0752193
22
root -3.31427 17.1953 -0.600536 -14.8883 -70.7672 -3.76008
lowerback 26.9995 -12.1871 -7.85673
upperback 11.5412 -18.6788 -2.67241
thorax 0.10974 -10.0308 5.81102
lowerneck 8.93432 10.3056 -4.69996
upperneck 15.0701 12.6003 -0.54738
head 3.12663 5.59214 0.543741
rclavicle -6.83819e-014 -9.54166e-015
rhumerus -50.2323 12.4042 -77.8263
rradius 37.0918
rwrist 22.3555
rhand -29.919 35.5449
rfingers 7.12502
rthumb -3.23923 5.5898
lclavicle -6.83819e-014 -9.54166e-015
lhumerus 21.1504 4.52628 81.6972
lradius 109.998
lwrist 41.8198
lhand -15.4708 -10.5386
lfingers 7.12502
lthumb 10.7106 19.1683
rfemur -37.7097 -8.59074 9.44951
rtibia 88.467
rfoot 0.959097 -3.89422
rtoes -14.973
lfemur 2.31586 -18.0825 -24.8237
ltibia 33.0825
lfoot -19.6078 7.21521
ltoes 0.125063
23
root -3.28669 17.2119 -0.585908 -13.6035 -70.5343 -5.6721
lowerback 28.0632 -12.6668 -7.861
upperback 11.8522 -19.4032 -2.69114
thorax 0.0886301 -10.4292 6.11867
lowerneck 9.28681 10.5225 -4.41848
upperneck 14.5987 12.8808 -0.655972
head 2.92536 5.76013 0.430023
rclavicle -7.63333e-014 2.22639e-014
rhumerus -50.4141 11.9294 -77.4704
rradius 36.4101
rwrist 22.9659
rhand -30.2278 35.8821
rfingers 7.12502
rthumb -3.53742 5.93166
lclavicle -7.63333e-014 2.22639e-014
lhumerus 22.9284 4.6883 81.5052
lradius 111.093
lwrist 42.8459
lhand -14.7776 -10.8578
lfingers 7.12502
lthumb 11.3793 18.8135
rfemur -39.8285 -9.09103 10.2161
rtibia 90.9055
rfoot 0.8521 -3.09866
rtoes -14.749
lfemur 2.9967 -18.3511 -24.4442
ltibia 32.7607
lfoot -19.378 7.20016
ltoes 0.258496
24
root -3.26016 17.2244 -0.574354 -12.4409 -70.2412 -7.50202
lowerback 29.2337 -13.1275 -7.92588
upperback 12.1449 -20.1247 -2.72837
thorax 0.0258491 -10.8258 6.47272
lowerneck 9.79125 10.7143 -3.9967
upperneck 14.083 13.1308 -0.820886
head 2.70155 5.9188 0.269206
rclavicle -4.65156e-014 7.15625e-015
rhumerus -50.6689 11.4007 -77.0964
rradius 35.7767
rwrist 23.6292
rhand -30.5083 36.2666
rfingers 7.12502
rthumb -3.80836 6.32085
lclavicle -4.65156e-014 7.15625e-015
lhumerus 24.659 4.76353 81.3273
lradius 112.106
lwrist 43.8926
lhand -14.0403 -11.1819
lfingers 7.12502
lthumb 12.0903 18.4488
rfemur -41.9031 -9.65827 10.9624
rtibia 93.3405
rfoot 0.651815 -2.34106
rtoes -14.7441
lfemur 3.68342 -18.5624 -24.0666
ltibia 32.4781
lfoot -19.1258 7.13069
ltoes 0.255393
25
root -3.23552 17.2355 -0.564866 -11.4224 -69.9036 -9.20986
lowerback 30.4575 -13.5643 -8.07518
upperback 12.4325 -20.8422 -2.7545
thorax -0.0158303 -11.2277 6.89412
lowerneck 10.3607 10.9134 -3.61628
upperneck 13.5452 13.3821 -0.946773
head 2.45887 6.07634 0.122563
rclavicle -5.12864e-014 4.77083e-015
rhumerus -50.9232 10.8398 -76.6435
rradius 35.1851
rwrist 24.3033
rhand -30.6595 36.6068
rfingers 7.12502
rthumb -3.95431 6.66377
lclavicle -5.12864e-014 4.77083e-015
lhumerus 26.3521 4.80101 81.1561
lradius 113.17
lwrist 45.08
lhand -13.3061 -11.435
lfingers 7.12502
lthumb 12.7981 18.1527
rfemur -43.9634 -10.2946 11.6913
rtibia 95.7719
rfoot 0.426234 -1.63369
rtoes -14.9837
lfemur 4.36413 -18.746 -23.7031
ltibia 32.2383
lfoot -18.8564 6.98444
ltoes 0.272574
26
root -3.21251 17.2436 -0.557571 -10.6318 -69.5492 -10.66
lowerback 31.6772 -13.95 -8.342
upperback 12.724 -21.5301 -2.7881
thorax 0.00254563 -11.626 7.3535
lowerneck 10.9829 11.1139 -3.21832
upperneck 12.9733 13.6354 -1.02522
head 2.19897 6.23676 -0.0160811
rclavicle 1.21259e-013 3.18055e-015
rhumerus -51.3009 10.5077 -76.3236
rradius 34.7845
rwrist 24.626
rhand -30.76 36.784
rfingers 7.12502
rthumb -4.05142 6.84279
lclavicle 1.21259e-013 3.18055e-015
lhumerus 28.0916 4.75911 80.9137
lradius 114.269
lwrist 46.3316
lhand -12.7896 -11.5315
lfingers 7.12502
lthumb 13.296 18.0243
rfemur -46.0985 -11.0064 12.387
rtibia 98.2182
rfoot 0.213961 -0.975491
rtoes -15.2789
lfemur 4.98073 -18.839 -23.3731
ltibia 32.0631
lfoot -18.6039 6.77299
ltoes 0.21233
